<svg width="20" height="24" viewBox="0 0 20 24" fill="none" xmlns="http://www.w3.org/2000/svg">
<g clip-path="url(#clip0_8_3468)">
<path d="M15.2444 1.34268C17.0418 4.45591 17.9881 7.98743 17.9881 11.5823C17.9881 15.1771 17.0418 18.7087 15.2444 21.8219M10.739 3.59539C12.141 6.02372 12.879 8.7783 12.879 11.5823C12.879 14.3863 12.141 17.1409 10.739 19.5692M6.43833 5.66379C7.45208 7.43834 7.98577 9.4513 7.98577 11.5004C7.98577 13.5494 7.45208 15.5624 6.43833 17.3369M2.1377 7.89603C2.86829 9.00175 3.25563 10.2789 3.25563 11.5823C3.25563 12.8856 2.86829 14.1628 2.1377 15.2685" stroke="white" stroke-width="2.4575" stroke-linecap="round"/>
</g>
<defs>
<clipPath id="clip0_8_3468">
<rect width="19.1139" height="22.9367" fill="white" transform="translate(0.772217 0.113922)"/>
</clipPath>
</defs>
</svg>
